<?xml version="1.0" encoding="utf-8"?>
<!-- Generator: Adobe Illustrator 16.0.0, SVG Export Plug-In . SVG Version: 6.00 Build 0)  -->
<!DOCTYPE svg PUBLIC "-//W3C//DTD SVG 1.1//EN" "http://www.w3.org/Graphics/SVG/1.1/DTD/svg11.dtd">
<svg version="1.1"
	 id="Layer_1" xmlns:inkscape="http://www.inkscape.org/namespaces/inkscape" xmlns:svg="http://www.w3.org/2000/svg" xmlns:sodipodi="http://sodipodi.sourceforge.net/DTD/sodipodi-0.dtd" sodipodi:docname="sbhx_logo_color_perspective_fixed_plain.svg" inkscape:version="0.91 r13725"
	 xmlns="http://www.w3.org/2000/svg" xmlns:xlink="http://www.w3.org/1999/xlink" x="0px" y="0px" width="612px" height="792px"
	 viewBox="0 0 612 792" enable-background="new 0 0 612 792" xml:space="preserve">
<sodipodi:namedview  inkscape:window-width="1676" inkscape:pageopacity="0" inkscape:pageshadow="2" inkscape:guide-bbox="true" inkscape:window-maximized="1" inkscape:window-x="0" inkscape:window-height="1005" inkscape:current-layer="Layer_1" inkscape:window-y="1" pagecolor="#ffffff" bordercolor="#666666" inkscape:cy="397.8159" guidetolerance="10" gridtolerance="10" borderopacity="1" inkscape:cx="85.73636" showgrid="false" objecttolerance="10" inkscape:zoom="0.84281415" showguides="true" id="namedview23">
	</sodipodi:namedview>
<path id="path15" inkscape:connector-curvature="0" fill="#4BF700" d="M490.457,332.987c10.379-9.527,19.943-18.751,30.121-27.491
	c7.246-6.223,10.939-12.876,11.252-19.469c0.248-5.121-0.609-10.368-3.068-13.766c-6.049-8.354-13.244-15.692-20.043-23.346
	c-8.432-9.492-16.846-18.96-25.381-28.272c-5.65-6.17-11.596-12.016-17.268-18.132c-6.629-7.147-13.072-14.468-19.646-21.623
	c-4.057-4.42-30.865-35.451-34.875-39.896c-5.67-6.287-11.158-12.755-16.779-19.06c-2.738-3.075-5.629-5.979-8.447-8.956
	c-3.977-4.205-8.172-8.158-11.84-12.685c-2.619-3.231-7.172-1.712-11.285-1.302c-10.748,1.068-19.592-1.345-27.383-5.821
	c-5.611-3.222-10.57-7.324-14.117-13.078c-3.527-5.711-7.082-11.576-6.732-20.81c0.121-3.149-0.338-6.017-0.098-9.227
	c0.816-10.889,12.406-26.462,21.271-30.081c7.23-2.953,14.459-5.814,20.852-5.719c8.285,0.127,15.924,1.945,21.99,6.352
	c5.061,3.674,10.121,7.547,13.986,12.7c3.312,4.417,5.104,10.563,7.189,16.264c1.859,5.084,0.645,11.956-0.721,18.725
	c-0.703,3.485-0.283,5.914,1.312,7.642c4.668,5.064,9.346,10.128,14.021,15.211c6.832,7.434,13.656,14.905,20.525,22.35
	c4.898,5.311,9.908,10.516,14.768,15.899c7.074,7.841,36.561,42.708,43.67,50.561c4.096,4.522,8.479,8.76,12.602,13.277
	c4.98,5.466,9.748,11.16,14.754,16.629c4.312,4.707,8.938,9.121,13.23,13.87c10.652,11.789,22.783,22.356,29.334,37.83
	c3.379,7.965,5.5,16.771,4.246,27.155c-0.789,6.526-1.875,13.336-4.492,20.118c-2.023,5.245-5.705,11.444-10.18,15.823
	c-12.451,12.187-25.453,23.452-37.898,34.791c-7.967,7.262-15.855,14.42-23.539,21.609c-1.084,1.016-2.031,2.775-2.191,3.957
	c-0.457,3.342-0.582,6.604-0.631,9.812c-0.139,9.646-0.26,19.23-0.225,28.693c0.016,5.238,0.463,10.311,0.514,15.5
	c0.059,5.381-0.098,10.82-0.203,16.219c-0.074,3.939-0.383,7.947-0.303,11.816c0.178,8.238,0.682,16.322,0.773,24.504
	c0.062,5.379-0.527,10.941-0.512,16.297c0.027,8.723,0.648,17.227,0.379,25.928c-0.205,6.707-0.609,13.555-2.299,20.418
	c-2.055,8.301-6.98,16.236-14.445,23.314c-12.305,11.654-25.703,15.09-39.686,14.922c-5.873-0.076-11.826,0.234-17.643,0.219
	c-6.977-0.023-13.818-0.33-20.711-0.299c-7.977,0.039-15.977,0.406-23.818,0.439c-7.479,0.041-14.822-0.189-22.164-0.227
	c-3.262-0.018-6.584,0.234-9.822,0.219c-6.594-0.025-13.1-0.217-19.605-0.215c-4.191,0.006-8.434,0.309-12.592,0.344
	c-5.301,0.051-10.522-0.064-15.747-0.059c-3.468,0.012-6.934,0.057-10.407,0.234c-0.727,0.037-1.57,0.723-2.878,1.365
	c1.078,1.539,1.903,3.025,3.021,4.254c3.78,4.15,7.722,8.164,11.505,12.33c2.632,2.898,5.014,6.018,7.656,8.912
	c4.012,4.402,8.203,8.664,12.234,13.068c2.84,3.1,27.471,30.918,30.26,34.064c2.906,3.287,5.854,6.543,8.811,9.795
	c5.783,6.357,11.605,12.703,17.396,19.094c0.955,1.053,1.988,1.73,3.852,1.438c1.797-0.287,3.584-0.117,5.385-0.4
	c11.355-1.779,20.428,1.199,28.594,6.318c7.066,4.43,12.43,10.143,15.471,17.408c2.027,4.838,4.18,9.869,4.369,15.17
	c0.186,5.301,0.654,10.719-2.186,16.523c-1.92,3.926-2.953,8.047-5.709,11.805c-4.242,5.781-9.674,10.236-16.463,13.941
	c-8.797,4.799-17.49,4.807-25.783,4.043c-6.387-0.59-12.393-2.893-16.943-6.604c-3.875-3.156-7.744-6.42-10.73-10.211
	c-2.516-3.191-4.016-7.123-5.531-10.92c-1.285-3.227-2.006-6.707-2.846-10.125c-0.271-1.094-0.307-2.324-0.131-3.502
	c0.715-4.791,1.457-9.611,2.406-14.451c0.408-2.076,0.561-3.994-0.785-5.494c-3.215-3.584-6.523-7.086-9.748-10.652
	c-5.179-5.73-10.275-11.514-15.466-17.205c-3.979-4.359-8.093-8.598-12.076-12.936c-4.062-4.426-8.037-8.918-12.054-13.365
	c-4.225-4.672-30.441-33.881-34.634-38.562c-5.966-6.658-11.855-13.357-17.817-19.975c-3.566-3.957-7.338-7.719-10.802-11.75
	c-1.713-1.994-3.782-2.992-6.617-2.873c-3.769,0.156-7.526,0.342-11.237,0.367c-5.845,0.041-11.627-0.031-17.378-0.061
	c-1.542-0.01-3.073-0.062-4.611-0.057c-7.649,0.021-15.227,0.018-22.746,0.107c-2.649,0.027-5.353,0.432-7.976,0.418
	c-6.621-0.033-13.283,0.135-19.31-1.781c-5.423-1.727-10.76-3.668-15.332-6.994c-3.024-2.205-6.365-4.051-8.933-6.752
	c-3.251-3.424-6.109-7.355-8.694-11.443c-1.986-3.143-3.572-6.719-4.846-10.398c-1.61-4.646-2.253-9.697-2.514-15.064
	c-0.595-12.186-0.159-24.674,0.059-37.279c0.189-10.924-0.068-21.85-0.185-32.898c-0.01-1.059-0.406-2.01-0.719-3.455
	c-1.824,1.604-3.396,2.889-4.876,4.309c-7.209,6.936-14.314,13.771-21.271,20.576c-4.106,4.016-8.295,7.887-12.003,12.252
	c-1.772,2.088-3.042,5.184-3.822,7.951c-2.513,8.938-0.196,15.883,4.409,21.342c4.669,5.541,9.764,10.617,14.769,15.807
	c6.965,7.219,14.043,14.354,21.08,21.582c4.594,4.715,9.132,9.512,13.758,14.227c4.508,4.598,9.093,9.121,13.658,13.691
	c4.124,4.125,8.279,8.24,12.391,12.416c8.525,8.66,39.02,41.949,47.584,50.693c7.396,7.553,14.816,15.125,22.237,22.746
	c4.007,4.115,8.069,8.203,11.926,12.486c1.786,1.979,3.832,2.217,6.527,1.326c1.709-0.562,3.476-0.867,5.226-1.207
	c0.821-0.158,1.652-0.086,2.48-0.193c7.425-0.945,14.136,0.568,20.465,3.299c7.138,3.082,13.053,7.732,17.581,13.691
	c3.586,4.719,6.222,10.082,7.52,16.1c1.371,6.355,1.069,12.891-0.143,19.436c-1.011,5.455-3.535,10.617-6.839,15.461
	c-3.799,5.568-8.965,9.77-14.797,13.076c-4.926,2.789-10.246,4.225-15.711,5.213c-6.106,1.113-11.49-0.215-16.975-1.391
	c-7.315-1.57-12.997-5.5-18.18-10.057c-6.619-5.818-10.61-13.328-12.504-21.971c-0.821-3.756-1.051-7.783-0.918-11.75
	c0.105-3.146,0.924-6.438,1.932-9.576c0.594-1.846,0.116-3.072-0.826-4.059c-5.141-5.359-10.414-10.57-15.575-15.871
	c-4.042-4.152-7.987-8.383-11.996-12.543c-0.667-0.691-1.54-1.17-2.218-1.854c-5.083-5.115-10.13-10.244-15.175-15.35
	c-3.341-3.385-6.675-6.764-10.006-10.137c-3.107-3.148-28.198-30.83-31.259-34.01c-2.579-2.674-5.037-5.469-7.622-8.123
	c-4.761-4.891-9.566-9.717-14.34-14.549c-3.215-3.258-6.403-6.533-9.641-9.74c-2.238-2.213-4.612-4.258-6.811-6.51
	c-4.233-4.33-8.345-8.801-12.566-13.115c-6.66-6.822-13.367-13.537-20.006-20.291c-5.503-5.6-10.29-11.914-13.504-19.83
	c-2.779-6.842-4.832-13.99-4.718-22.336c0.069-5.209,0.187-10.379,1.533-15.656c1.41-5.525,3.45-10.844,6.31-15.848
	c3.328-5.822,7.333-10.881,12.116-15.184c2.392-2.156,4.538-4.812,6.902-7.1c8.71-8.441,17.62-16.961,26.675-25.686
	c6.027-5.799,12.121-11.688,18.289-17.652c2.297-2.221,4.601-4.455,6.897-6.732c2.199-2.178,5.028-5.633,4.417-9.121
	c-0.097-0.545-0.249-1.078-0.245-1.658c0.044-6.787,0.147-13.627,0.17-20.482c0.032-9.639,0.011-19.336,0.005-29.111
	c-0.002-4.423-0.045-8.85-0.034-13.308c0.018-6.192,0.083-12.429,0.104-18.68c0.037-11.032,0.108-22.167,0.07-33.357
	c-0.041-11.819-0.374-23.631-0.234-35.729c0.074-6.36,0.071-12.81,3.241-19.352c3.957-8.161,9.229-14.45,15.445-19.249
	c8.479-6.544,17.108-9.869,25.757-11.008c10.472-1.377,20.361-1.502,30.675-1.425c7.609,0.057,15.44-0.42,23.217-0.489
	c9.548-0.086,19.132,0.046,28.86,0.018c6.884-0.021,13.882-0.253,20.846-0.219c7.94,0.039,15.853,0.363,23.925,0.393
	c6.145,0.022,12.433-0.268,18.688-0.338c2.571-0.029,5.065,0.193,7.627,0.231c4.78,0.068,9.595,0.105,14.446,0.107
	c2.061,0.001,2.805-0.784,2.596-2.434c-0.135-1.022-0.844-1.743-1.457-2.396c-7.594-8.037-14.653-15.486-21.271-22.375
	c-5.041-5.251-32.736-37.194-37.747-42.447c-6.405-6.719-12.702-13.551-19.061-20.272c-3.353-3.541-6.798-6.95-10.147-10.479
	c-3.758-3.957-7.474-7.962-11.174-11.982c-1.551-1.681-3.519-1.882-6.175-1.299c-8.089,1.767-15.598,1.475-22.084-0.98
	c-6.245-2.368-12.3-5.356-17.415-9.641c-5.766-4.832-10.183-11.631-12.714-20.79c-1.694-6.136-1.637-13.12-0.157-20.776
	c1.223-6.314,4.659-12.527,9.185-17.196c5.107-5.269,10.395-10.885,16.071-12.557c3.219-0.951,6.294-1.042,9.467-1.582
	c11.397-1.933,21.21,0.271,29.977,5.377c6.458,3.769,11.793,9.166,15.935,16.226c3.682,6.274,5.521,14.322,5.821,23.461
	c0.088,2.726-1.049,6.322-2.074,9.525c-0.904,2.827-0.571,4.415,0.605,5.63c7.514,7.763,15.048,15.54,22.584,23.36
	c7.227,7.508,14.467,15.039,21.692,22.622c8.232,8.633,16.441,17.337,24.701,26.028c5.617,5.911,33.844,38.619,39.438,44.6
	c5.881,6.294,11.57,12.837,17.627,18.967c1.412,1.432,3.682,2.174,5.961,2.231c10.283,0.255,20.795,0.201,31.416,0.148
	c9.4-0.048,19.137-0.691,28.502-0.278c12.916,0.567,24.41,3.863,33.564,10.902c8.375,6.437,14.818,14.657,18.896,25.281
	c3.018,7.87,3.26,16.979,3.215,26.338c-0.031,6.214,0.396,12.207,0.455,18.341c0.053,5.605-0.166,11.315-0.166,16.909
	c-0.004,5.767,0.131,11.454,0.145,17.174c0.002,2.799-0.305,5.73-0.141,8.442C488.885,330.299,489.717,331.281,490.457,332.987
	L490.457,332.987z M136.126,537.268c-0.21,6.336-0.236,5.992,2.863,12.09c1.751,3.449,4.617,5.99,8.411,6.74
	c3.694,0.73,7.604,0.924,11.497,1.109c2.749,0.129,5.614-0.219,8.421-0.244c1.188-0.01,2.299,0.412,3.491,0.381
	c5.464-0.137,10.976-0.324,16.537-0.59c0.719-0.037,1.774-0.455,2.216-1.039c0.308-0.412,0.053-1.615-0.333-2.104
	c-3.848-4.857-7.864-9.549-11.643-14.457c-4.526-5.875-7.014-13.238-8.748-20.959c-1.406-6.273-1.354-13.098-0.38-20.285
	c0.7-5.17,1.81-10.137,3.838-15.219c3.453-8.646,8.746-16.027,15.775-22.285c4.797-4.27,9.656-8.551,14.519-12.93
	c6.181-5.559,12.406-11.221,18.698-16.949c1.775-1.617,3.467-3.318,3.443-5.857c-0.064-7.037-0.153-14.104-0.145-21.236
	c0.002-2.088,0.688-4.473,0.394-6.385c-1.376-8.963-0.004-18.988-0.55-28.369c-0.106-1.803,0.258-3.807,0.351-5.705
	c0.174-3.607,0.001-7.148,0.529-10.839c0.842-5.864,4.174-11.043,8.776-15.08c6.707-5.878,13.636-7.041,20.387-7.361
	c5.324-0.255,10.483,0.184,15.816,0.128c7.765-0.085,15.68-0.438,23.567-0.495c5.923-0.045,11.761,0.288,17.74,0.302
	c8.248,0.017,16.947-0.863,24.92,0.117c4.422,0.545,7.492-1.659,11.043-4.942c7.824-7.236,15.621-14.751,23.67-22.146
	c7.064-6.502,11.645-15.642,10.801-22.234c-0.977-7.67-4.482-13.234-8.98-17.976c-3.67-3.867-7.129-7.957-10.885-11.703
	c-3.037-3.029-5.729-6.809-9.748-8.215c-4.275-1.499-9.846-0.735-14.898-0.744c-9.957-0.018-19.885,0.142-29.66,0.15
	c-4.272,0.004-8.424-0.298-12.682-0.231c-2.998,0.05-6.199,0.728-9.148,0.697c-5.192-0.055-10.188-0.618-15.339-0.639
	c-8.438-0.032-16.901,0.236-25.223,0.295c-6.519,0.044-12.952-0.047-19.372-0.05c-10.53-0.006-20.942-0.021-31.259,0.026
	c-8.315,0.041-16.573,0.132-24.766,0.265c-6.498,0.105-13.002,0.424-19.377,0.425c-3.569-0.001-6.897,2.204-9.993,5.465
	c-3.8,4.005-5.339,9.104-4.798,13.988c0.222,1.987,0.245,4.097,0.252,6.193c0.035,10.484,0.056,20.894,0.038,31.238
	c-0.019,11.58-0.065,23.068-0.14,34.47c-0.022,2.959-0.323,6.019-0.28,8.939c0.126,8.767,0.424,17.415,0.531,26.077
	c0.114,9.16,0.09,18.314,0.123,27.385c0.032,9.176,0.074,18.291,0.083,27.346c0.008,9.764,0.24,19.4-0.099,29.1
	c-0.336,9.654-0.222,19.074-0.089,28.451c0.122,8.479-0.218,17.014,0.1,25.361C136.805,516.861,136.267,527.166,136.126,537.268
	L136.126,537.268z M406.73,242.192c-0.281,0.385-0.564,0.767-0.848,1.152c0.275,1.133,0.299,2.504,0.875,3.356
	c3.758,5.592,6.908,11.624,9.062,18.577c2.365,7.631,3.221,15.897,2.02,25.119c-0.773,5.94-1.604,12.067-5.303,18.33
	c-2.846,4.825-5.346,10.271-9.148,14.104c-10.529,10.619-21.502,20.366-31.99,30.281c-2.232,2.112-5.004,4.382-6.127,6.777
	c-1.164,2.478-0.811,5.266-0.844,7.811c-0.098,7.566-0.074,15.045-0.08,22.5c0,5.127-0.029,10.248,0.064,15.307
	c0.102,5.975,0.396,11.857,0.482,17.791c0.074,5.467,0.154,10.918-0.119,16.445c-0.16,3.215-0.205,6.754-1.705,9.893
	c-4.609,9.658-10.18,15.088-20.133,17.367c-9.789,2.246-18.424,0.516-27.582,1.068c-4.982,0.295-9.745-0.188-14.612-0.166
	c-6.735,0.027-13.474,0.262-20.108,0.293c-4.584,0.018-9.025-0.463-13.619-0.178c-9.125,0.564-18.012,0.799-25.596-2.521
	c-2.031-0.885-3.588-0.273-5.676,1.68c-6.588,6.162-13.212,12.09-19.777,17.912c-3.469,3.072-6.565,6.492-8.45,10.602
	c-3.361,7.344-2.78,13.807-0.347,19.793c1.796,4.418,4.876,7.562,7.947,10.805c5.619,5.926,11.099,12.018,16.583,18.123
	c2.374,2.639,4.529,5.49,6.884,8.16c1.959,2.217,4,4.27,7.685,4.078c5.694-0.297,11.403-0.424,17.115-0.43
	c8.892-0.008,17.83,0.182,26.897,0.223c3.336,0.012,6.754-0.234,10.127-0.264c5.997-0.047,12.012-0.01,18.077-0.01
	c4.479-0.002,8.979-0.012,13.506-0.021c4.545-0.002,9.109,0,13.707-0.023c4.891-0.027,9.83-0.139,14.758-0.104
	c5.115,0.035,10.201,0.277,15.383,0.301c5.682,0.025,11.449-0.107,17.225-0.15c5.814-0.039,11.646-0.041,17.527-0.08
	c7.455-0.049,15.094-0.438,22.525-0.098c11.686,0.527,18.512-7.471,20.012-16.357c0.582-3.477,0.117-6.812,0.062-10.203
	c-0.129-7.869-0.371-15.742-0.424-23.717c-0.045-6.014,0.23-12.154,0.176-18.217c-0.039-4.588-0.549-9.037-0.525-13.668
	c0.014-4.775,0.605-9.75,0.625-14.557c0.021-6.031-0.373-11.945-0.414-18c-0.043-6.266,0.203-12.66,0.172-18.984
	c-0.025-5.092-0.352-10.092-0.4-15.207c-0.061-6.605,0.049-13.301,0.043-19.982c-0.008-5.328-0.084-10.652-0.109-16.014
	c-0.021-5.664-0.002-11.372-0.039-17.075c-0.033-5.02-0.197-10.003-0.156-15.083c0.041-5.214,0.422-10.581,0.383-15.792
	c-0.043-5.708-0.564-11.232-0.572-16.994c-0.008-6.242,0.541-12.755,0.475-19.024c-0.102-9.941-0.408-19.856-0.836-29.768
	c-0.369-8.648-5.199-13.315-12.652-14.507c-7.295-1.167-15.33-0.813-23.018-0.992C412.924,241.782,409.789,242.069,406.73,242.192
	L406.73,242.192z M265.211,366.074c-2.38,0.586-3.033,2.172-3.156,3.965c-0.1,1.412,0.075,2.742,0.008,4.145
	c-0.111,2.291-0.447,4.65-0.46,6.896c-0.019,4.051,0.15,8.02,0.193,12.027c0.013,1.197-0.202,2.473-0.19,3.666
	c0.097,8.959,0.352,17.814,0.278,26.721c-0.03,3.834,2.873,8.393,6.395,8.447c5.219,0.084,10.517,0,15.838-0.057
	c12.886-0.137,25.972-0.318,39.226-0.439c3.336-0.027,4.863-1.467,4.709-4.793c-0.111-2.385-0.662-4.617-0.637-7.047
	c0.088-7.527,0.471-15.195,0.529-22.793c0.07-8.463-0.166-16.861-0.123-25.414c0.02-3.887-0.979-5.959-3.393-5.887
	c-5.299,0.152-10.584,0.373-15.785,0.414c-10.841,0.092-21.53,0.092-32.11,0.125C272.644,366.062,268.771,366.066,265.211,366.074z"
	/>
</svg>
